[
    {
        "start": {
            "timestamp": {
                "n": 0,
                "pts": 0,
                "pts_time": 0
            },
            "event": {
                "type": "start_marker",
                "trial_type": "animation",
                "trial_index": "trial-1-1"
            }
        },
        "end": {
            "timestamp": {
                "n": 69,
                "pts": 69,
                "pts_time": 2.3
            },
            "event": {
                "type": "end_marker",
                "trial_type": "animation",
                "trial_index": "0",
                "time_elapsed": "3007"
            }
        }
    },
    {
        "start": {
            "timestamp": {
                "n": 70,
                "pts": 70,
                "pts_time": 2.33333
            },
            "event": {
                "type": "start_marker",
                "trial_type": "disks",
                "trial_index": "disk-condition-1-1"
            }
        },
        "end": {
            "timestamp": {
                "n": 174,
                "pts": 174,
                "pts_time": 5.8
            },
            "event": {
                "type": "end_marker",
                "trial_type": "disks",
                "trial_index": "1",
                "time_elapsed": "11109"
            }
        }
    },
    {
        "start": {
            "timestamp": {
                "n": 175,
                "pts": 175,
                "pts_time": 5.83333
            },
            "event": {
                "type": "start_marker",
                "trial_type": "animation",
                "trial_index": "trial-1-3"
            }
        },
        "end": {
            "timestamp": {
                "n": 216,
                "pts": 216,
                "pts_time": 7.2
            },
            "event": {
                "type": "end_marker",
                "trial_type": "animation",
                "trial_index": "2",
                "time_elapsed": "14113"
            }
        }
    },
    {
        "start": {
            "timestamp": {
                "n": 217,
                "pts": 217,
                "pts_time": 7.23333
            },
            "event": {
                "type": "start_marker",
                "trial_type": "disks",
                "trial_index": "disk-condition-1-1"
            }
        },
        "end": {
            "timestamp": {
                "n": 326,
                "pts": 326,
                "pts_time": 10.8667
            },
            "event": {
                "type": "end_marker",
                "trial_type": "disks",
                "trial_index": "3",
                "time_elapsed": "22154"
            }
        }
    },
    {
        "start": {
            "timestamp": {
                "n": 328,
                "pts": 328,
                "pts_time": 10.9333
            },
            "event": {
                "type": "start_marker",
                "trial_type": "animation",
                "trial_index": "trial-1-5"
            }
        },
        "end": {
            "timestamp": {
                "n": 373,
                "pts": 373,
                "pts_time": 12.4333
            },
            "event": {
                "type": "end_marker",
                "trial_type": "animation",
                "trial_index": "4",
                "time_elapsed": "25170"
            }
        }
    },
    {
        "start": {
            "timestamp": {
                "n": 374,
                "pts": 374,
                "pts_time": 12.4667
            },
            "event": {
                "type": "start_marker",
                "trial_type": "disks",
                "trial_index": "disk-condition-1-1"
            }
        },
        "end": {
            "timestamp": {
                "n": 481,
                "pts": 481,
                "pts_time": 16.0333
            },
            "event": {
                "type": "end_marker",
                "trial_type": "disks",
                "trial_index": "5",
                "time_elapsed": "33221"
            }
        }
    },
    {
        "start": {
            "timestamp": {
                "n": 482,
                "pts": 482,
                "pts_time": 16.0667
            },
            "event": {
                "type": "start_marker",
                "trial_type": "animation",
                "trial_index": "trial-1-7"
            }
        },
        "end": {
            "timestamp": {
                "n": 546,
                "pts": 546,
                "pts_time": 18.2
            },
            "event": {
                "type": "end_marker",
                "trial_type": "animation",
                "trial_index": "6",
                "time_elapsed": "36233"
            }
        }
    },
    {
        "start": {
            "timestamp": {
                "n": 547,
                "pts": 547,
                "pts_time": 18.2333
            },
            "event": {
                "type": "start_marker",
                "trial_type": "disks",
                "trial_index": "disk-condition-1-1"
            }
        },
        "end": {
            "timestamp": {
                "n": 658,
                "pts": 658,
                "pts_time": 21.9333
            },
            "event": {
                "type": "end_marker",
                "trial_type": "disks",
                "trial_index": "7",
                "time_elapsed": "44278"
            }
        }
    },
    {
        "start": {
            "timestamp": {
                "n": 660,
                "pts": 660,
                "pts_time": 22
            },
            "event": {
                "type": "start_marker",
                "trial_type": "animation",
                "trial_index": "trial-1-9"
            }
        },
        "end": {
            "timestamp": {
                "n": 702,
                "pts": 702,
                "pts_time": 23.4
            },
            "event": {
                "type": "end_marker",
                "trial_type": "animation",
                "trial_index": "8",
                "time_elapsed": "47281"
            }
        }
    },
    {
        "start": {
            "timestamp": {
                "n": 703,
                "pts": 703,
                "pts_time": 23.4333
            },
            "event": {
                "type": "start_marker",
                "trial_type": "disks",
                "trial_index": "disk-condition-1-1"
            }
        },
        "end": {
            "timestamp": {
                "n": 798,
                "pts": 798,
                "pts_time": 26.6
            },
            "event": {
                "type": "end_marker",
                "trial_type": "disks",
                "trial_index": "9",
                "time_elapsed": "55326"
            }
        }
    },
    {
        "start": {
            "timestamp": {
                "n": 800,
                "pts": 800,
                "pts_time": 26.6667
            },
            "event": {
                "type": "start_marker",
                "trial_type": "animation",
                "trial_index": "trial-1-11"
            }
        },
        "end": {
            "timestamp": {
                "n": 847,
                "pts": 847,
                "pts_time": 28.2333
            },
            "event": {
                "type": "end_marker",
                "trial_type": "animation",
                "trial_index": "10",
                "time_elapsed": "58331"
            }
        }
    },
    {
        "start": {
            "timestamp": {
                "n": 848,
                "pts": 848,
                "pts_time": 28.2667
            },
            "event": {
                "type": "start_marker",
                "trial_type": "disks",
                "trial_index": "disk-condition-1-1"
            }
        },
        "end": {
            "timestamp": {
                "n": 944,
                "pts": 944,
                "pts_time": 31.4667
            },
            "event": {
                "type": "end_marker",
                "trial_type": "disks",
                "trial_index": "11",
                "time_elapsed": "66377"
            }
        }
    },
    {
        "start": {
            "timestamp": {
                "n": 945,
                "pts": 945,
                "pts_time": 31.5
            },
            "event": {
                "type": "start_marker",
                "trial_type": "animation",
                "trial_index": "trial-1-13"
            }
        },
        "end": {
            "timestamp": {
                "n": 989,
                "pts": 989,
                "pts_time": 32.9667
            },
            "event": {
                "type": "end_marker",
                "trial_type": "animation",
                "trial_index": "12",
                "time_elapsed": "69381"
            }
        }
    },
    {
        "start": {
            "timestamp": {
                "n": 990,
                "pts": 990,
                "pts_time": 33
            },
            "event": {
                "type": "start_marker",
                "trial_type": "disks",
                "trial_index": "disk-condition-1-1"
            }
        },
        "end": {
            "timestamp": {
                "n": 1094,
                "pts": 1094,
                "pts_time": 36.4667
            },
            "event": {
                "type": "end_marker",
                "trial_type": "disks",
                "trial_index": "13",
                "time_elapsed": "77432"
            }
        }
    }
]